<svg width="295" height="295" viewBox="0 0 295 295" fill="none" xmlns="http://www.w3.org/2000/svg">
<g clip-path="url(#clip0_5_2)">
<path d="M4 207.691C30.9438 206.717 57.6665 206.384 84.5857 205.719C109.543 205.102 134.727 203.958 159.71 204.001C184.008 204.242 208.301 204.783 232.585 205.623L299 207.01V212.148L220.589 214.098C202.097 214.642 183.583 215.08 165.087 215.459C154.615 215.673 143.734 215.061 133.215 214.88C105.356 214.502 77.5015 213.807 49.658 212.793L18.8259 212.11C14.0024 212.017 8.7763 212.069 4 211.799V207.691Z" fill="#F9C820"/>
<path d="M143.83 124.494C148.309 124.362 153.821 124.37 158.273 125.104C185.402 129.577 207.142 147.862 216.466 173.696C218.488 179.299 219.73 186.081 220.45 192.047L150.511 192.086L101.492 192.093C92.4176 192.095 82.5663 192.276 73.5366 191.998C77.2641 154.841 106.177 126.115 143.83 124.494Z" fill="#F9C820"/>
<path d="M146.634 61L147.159 61.3372C147.705 62.274 148.23 65.648 148.323 66.8035C149.295 78.9003 150.81 90.925 151.838 103.011C152.042 105.411 152.471 108.656 152.341 110.997C151.26 111.954 149.021 111.719 147.488 111.728C145.488 111.731 143.57 111.64 141.573 111.55C141.24 106.408 142.957 94.3557 143.495 88.9022L145.33 71.1015C145.614 68.4275 146.025 63.4323 146.634 61Z" fill="#F9C820"/>
<path d="M73.3656 84.2465C76.0656 84.8453 100.716 117.007 105.061 122.042C103.977 123.113 103.1 123.867 101.942 124.834C99.9533 126.243 98.1173 127.316 95.9856 128.477C95.0958 127.354 94.5293 126.446 93.8461 125.196C88.1858 114.844 83.1368 104.232 77.8323 93.7053C76.3076 90.6793 74.3673 87.4643 73.3656 84.2465Z" fill="#F9C820"/>
<path d="M184.688 67.7843C184.704 67.8115 185.157 68.3453 185.129 68.499C184.133 74.0245 178.461 114.674 175.876 116.312C173.833 116.855 170.322 115.251 168.367 114.447C167.624 114.069 166.761 113.538 166.026 113.112C166.997 108.93 169.57 103.634 171.319 99.515L179.184 80.7678C180.354 77.984 183.233 70.0755 184.688 67.7843Z" fill="#F9C820"/>
<path d="M24.3466 143.645C27.1773 143.589 44.9328 149.703 48.7688 150.954C53.7331 152.573 66.0668 155.665 70.0563 157.942C69.4551 160.866 68.5511 162.947 67.4321 165.707C66.7558 167.081 66.4741 167.451 65.5128 168.663C58.1183 164.743 50.2816 159.676 43.0791 155.357C40.4888 153.804 25.4633 145.38 24.3466 143.645Z" fill="#F9C820"/>
<path d="M268.441 143.694L269.191 143.706L269.309 143.951C267.956 145.706 232.323 166.567 228.83 168.324C228.372 167.853 227.865 167.254 227.419 166.756C225.945 163.961 224.839 160.986 224.13 157.906C229.048 155.373 239.957 152.455 245.641 150.652L260.059 146.128C262.586 145.347 265.906 144.197 268.441 143.694Z" fill="#F9C820"/>
<path d="M219.443 84.2455L219.987 84.498C220.251 86.1228 213.192 99.4888 211.989 101.833C207.5 110.589 203.199 119.8 198.19 128.251C196.159 127.289 195.222 126.703 193.376 125.432C191.56 124.201 190.675 123.358 189.197 121.801C195.784 112.542 204.301 102.759 211.583 93.9897C214.263 90.7625 216.737 87.4197 219.443 84.2455Z" fill="#F9C820"/>
<path d="M45.2216 110.825C47.6431 110.909 53.5173 115.805 55.9243 117.394C61.4863 121.066 67.0558 124.849 72.4576 128.754C76.4913 131.669 80.8861 134.106 84.7253 137.279C84.0126 139.618 83.1646 140.524 81.6818 142.431C80.1858 144.114 79.4306 144.956 77.4378 146.001C74.8456 143.7 70.0611 138.047 67.7583 135.714C64.4566 132.369 46.3631 113.612 45.2216 110.825Z" fill="#F9C820"/>
<path d="M108.89 68.252C110.76 69.5282 113.796 78.2082 114.773 80.5972L124.081 103.144C125.401 106.289 126.674 109.828 128.16 112.859C127.421 113.394 126.558 113.946 125.793 114.46C123.972 115.262 119.254 117.231 117.515 116.106C116.27 113.695 108.854 71.6602 108.89 68.252Z" fill="#F9C820"/>
<path d="M247.381 111.095C247.979 111.035 247.694 110.994 248.259 111.252C248.159 112.879 221.554 140.302 219.134 143.174C218.687 143.704 217.017 145.074 216.334 145.461C214.804 145.419 213.921 144.113 212.79 142.949C211.556 141.704 209.329 139.264 209.083 137.552C209.586 136.308 219.244 130.206 221.038 128.949C226.474 125.138 231.996 121.1 237.621 117.572C240.601 115.704 244.309 112.496 247.381 111.095Z" fill="#F9C820"/>
<path d="M52.0856 181.999L56.4366 181.884C57.5431 181.861 60.3478 181.608 61.1048 182.421C61.9431 183.321 61.7773 185.699 61.7121 186.851C61.6338 188.23 61.5288 192.002 60.3986 192.831C58.9666 193.882 33.3543 187.766 29.6703 187.053C27.6073 186.635 14.7384 184.086 14 183.151C15.1109 182.062 48.1893 182.098 52.0856 181.999Z" fill="#F9C820"/>
<path d="M233.069 181.939C235.139 181.785 243.089 181.803 244.959 181.979C249.016 182.36 278.399 181.665 280.236 183.131L280.079 183.432C278.674 184.093 273.724 185.07 271.901 185.474C259.864 187.514 246.231 191.588 234.513 193.097C232.564 190.983 231.514 184.15 233.069 181.939Z" fill="#F9C820"/>
</g>
<defs>
<clipPath id="clip0_5_2">
<rect width="295" height="295" fill="white"/>
</clipPath>
</defs>
</svg>
